<?xml version="1.0" encoding="UTF-8" standalone="no"?>
<svg width="36px" height="50px" viewBox="0 0 36 50" version="1.1" xmlns="http://www.w3.org/2000/svg" xmlns:xlink="http://www.w3.org/1999/xlink">
    <!-- Generator: Sketch 3.7.1 (28215) - http://www.bohemiancoding.com/sketch -->
    <title>Fill 468</title>
    <desc>Created with Sketch.</desc>
    <defs></defs>
    <g id="Page-1" stroke="none" stroke-width="2" fill="none" fill-rule="evenodd">
        <g id="50px" transform="translate(-2482.000000, -2431.000000)" fill="#ffffff">
            <path d="M2514.14,2441.96 L2513.13,2443.67 L2502.54,2437.72 L2503.56,2436.01 C2505.24,2433.16 2508.98,2432.19 2511.91,2433.83 C2514.83,2435.47 2515.83,2439.11 2514.14,2441.96 L2514.14,2441.96 Z M2500.84,2464.38 L2500.82,2464.37 L2497.83,2469.42 L2487.25,2463.48 L2490.31,2458.33 L2501.52,2439.44 L2512.11,2445.39 L2500.84,2464.38 L2500.84,2464.38 Z M2495.81,2472.86 L2485.42,2478.47 L2485.22,2466.92 L2486.24,2465.2 L2496.83,2471.15 L2495.81,2472.86 L2495.81,2472.86 Z M2512.92,2432.11 C2509.01,2429.91 2504.06,2431.14 2501.87,2434.84 L2500.75,2436.72 L2486.08,2461.46 L2486.04,2461.55 L2483.46,2465.92 L2482.98,2479.39 L2485.8,2480.98 L2497.57,2473.85 L2502.6,2465.38 L2516,2442.79 C2518.2,2439.08 2516.82,2434.3 2512.92,2432.11 L2512.92,2432.11 Z" id="Fill-468"></path>
        </g>
    </g>
</svg>
