<?xml version="1.0" encoding="utf-8"?>
<!-- Generator: Adobe Illustrator 18.1.1, SVG Export Plug-In . SVG Version: 6.00 Build 0)  -->
<svg version="1.1" id="Layer_1" xmlns="http://www.w3.org/2000/svg" xmlns:xlink="http://www.w3.org/1999/xlink" x="0px" y="0px"
	 viewBox="0 0 128 128" enable-background="new 0 0 128 128" xml:space="preserve">
<path fill-rule="evenodd" clip-rule="evenodd" d="M64.2,127.5C29,127.5,0.5,99,0.5,63.8C0.5,28.7,29,0.1,64.2,0.1
	c35.2,0,63.7,28.5,63.7,63.7C127.9,99,99.3,127.5,64.2,127.5z M64.2,8.1C33.4,8.1,8.5,33,8.5,63.8c0,30.8,24.9,55.7,55.7,55.7
	c30.8,0,55.7-24.9,55.7-55.7C119.9,33,95,8.1,64.2,8.1z"/>
<path d="M62.1,54.9H47.7v-7h23v41.7h14.5v7H46.1v-7h16V54.9z M65.1,27.4c0.9,0,1.8,0.2,2.6,0.5c0.8,0.3,1.5,0.8,2.1,1.4
	c0.6,0.6,1.1,1.3,1.4,2.1c0.3,0.8,0.5,1.7,0.5,2.6c0,0.9-0.2,1.8-0.5,2.6c-0.3,0.8-0.8,1.5-1.4,2.1c-0.6,0.6-1.3,1.1-2.1,1.4
	c-0.8,0.3-1.7,0.5-2.6,0.5c-0.9,0-1.8-0.2-2.6-0.5c-0.8-0.3-1.5-0.8-2.1-1.4c-0.6-0.6-1.1-1.3-1.4-2.1c-0.3-0.8-0.5-1.7-0.5-2.6
	c0-0.9,0.2-1.8,0.5-2.6c0.3-0.8,0.8-1.5,1.4-2.1c0.6-0.6,1.3-1.1,2.1-1.4C63.3,27.6,64.2,27.4,65.1,27.4z"/>
</svg>
