<?xml version="1.0" encoding="UTF-8" standalone="no"?>
<svg width="43px" height="43px" viewBox="0 0 43 43" version="1.1" xmlns="http://www.w3.org/2000/svg" xmlns:xlink="http://www.w3.org/1999/xlink">
    <!-- Generator: Sketch 3.7.1 (28215) - http://www.bohemiancoding.com/sketch -->
    <title>Fill 257</title>
    <desc>Created with Sketch.</desc>
    <defs></defs>
    <g id="Page-1" stroke="none" stroke-width="1" fill="none" fill-rule="evenodd">
        <g id="50px" transform="translate(-2180.000000, -4346.000000)" fill="#ffffff">
            <path d="M2203.42,4367.97 L2222.69,4348.7 C2223.09,4348.29 2223.09,4347.64 2222.69,4347.24 C2222.29,4346.84 2221.64,4346.84 2221.24,4347.24 L2201.97,4366.51 L2182.7,4347.24 C2182.3,4346.84 2181.64,4346.84 2181.24,4347.24 C2180.84,4347.64 2180.84,4348.29 2181.24,4348.7 L2200.51,4367.97 L2181.24,4387.24 C2180.84,4387.64 2180.84,4388.29 2181.24,4388.69 C2181.64,4389.09 2182.3,4389.09 2182.7,4388.69 L2201.97,4369.42 L2221.24,4388.69 C2221.64,4389.09 2222.29,4389.09 2222.69,4388.69 C2223.09,4388.29 2223.09,4387.64 2222.69,4387.24 L2203.42,4367.97" id="Fill-257"></path>
        </g>
    </g>
</svg>
