<?xml version="1.0" encoding="UTF-8" standalone="no"?>
<svg width="46px" height="46px" viewBox="0 0 46 46" version="1.1" xmlns="http://www.w3.org/2000/svg" xmlns:xlink="http://www.w3.org/1999/xlink">
    <!-- Generator: Sketch 3.7.1 (28215) - http://www.bohemiancoding.com/sketch -->
    <title>Fill 287</title>
    <desc>Created with Sketch.</desc>
    <defs></defs>
    <g id="Page-1" stroke="none" stroke-width="1" fill="none" fill-rule="evenodd">
        <g id="50px" transform="translate(-2179.000000, -4015.000000)" fill="black">
            <path d="M2209.78,4030.22 C2209.39,4029.83 2208.75,4029.83 2208.36,4030.22 L2202,4036.58 L2195.64,4030.22 C2195.25,4029.83 2194.61,4029.83 2194.22,4030.22 C2193.83,4030.61 2193.83,4031.24 2194.22,4031.63 L2200.59,4038 L2194.22,4044.36 C2193.83,4044.75 2193.83,4045.38 2194.22,4045.78 C2194.61,4046.17 2195.25,4046.17 2195.64,4045.78 L2202,4039.41 L2208.36,4045.78 C2208.75,4046.17 2209.39,4046.17 2209.78,4045.78 C2210.17,4045.38 2210.17,4044.75 2209.78,4044.36 L2203.41,4038 L2209.78,4031.63 C2210.17,4031.24 2210.17,4030.61 2209.78,4030.22 L2209.78,4030.22 Z M2202,4058.99 C2190.4,4058.99 2181,4049.59 2181,4038 C2181,4026.4 2190.4,4017 2202,4017 C2213.59,4017 2223,4026.4 2223,4038 C2223,4049.59 2213.59,4058.99 2202,4058.99 L2202,4058.99 Z M2202,4015 C2189.3,4015 2179,4025.29 2179,4038 C2179,4050.7 2189.3,4061 2202,4061 C2214.7,4061 2225,4050.7 2225,4038 C2225,4025.29 2214.7,4015 2202,4015 L2202,4015 Z" id="Fill-287"></path>
        </g>
    </g>
</svg>
