<?xml version="1.0" encoding="utf-8"?>
<!DOCTYPE svg PUBLIC "-//W3C//DTD SVG 1.1//EN" "http://www.w3.org/Graphics/SVG/1.1/DTD/svg11.dtd">
<svg xmlns="http://www.w3.org/2000/svg" xmlns:xlink="http://www.w3.org/1999/xlink" width="512px" version="1.1" height="512px" viewBox="0 0 64 64" enable-background="new 0 0 64 64">
  <g>
    <g fill="#1D1D1B">
      <path d="m46.74,25.293l-14.474,14.475-14.485-14.487c-0.781-0.781-2.047-0.781-2.828,0-0.781,0.779-0.781,2.047 0,2.828l15.879,15.883c0.248,0.248 0.588,0.436 0.928,0.525 0.17,0.045 0.344,0.068 0.516,0.068 0.523,0 1.035-0.207 1.414-0.586l15.879-15.879c0.781-0.781 0.781-2.047 0-2.828s-2.048-0.78-2.829,0.001z" fill="#FFFFFF"/>
      <path d="M32,0C14.355,0,0,14.355,0,32s14.355,32,32,32s32-14.355,32-32S49.645,0,32,0z M32,60    C16.561,60,4,47.439,4,32S16.561,4,32,4s28,12.561,28,28S47.439,60,32,60z" fill="#FFFFFF"/>
    </g>
  </g>
</svg>
