<?xml version="1.0" encoding="UTF-8" standalone="no"?>
<svg width="50px" height="51px" viewBox="0 0 50 51" version="1.1" xmlns="http://www.w3.org/2000/svg" xmlns:xlink="http://www.w3.org/1999/xlink">
    <!-- Generator: Sketch 3.7.1 (28215) - http://www.bohemiancoding.com/sketch -->
    <title>Fill 78</title>
    <desc>Created with Sketch.</desc>
    <defs></defs>
    <g id="Page-1" stroke="none" stroke-width="1" fill="none" fill-rule="evenodd">
        <path d="M43,41 L12,41 L12,29 L43,29 L47.5,35 L43,41 L43,41 Z M30,47 C30,48.1 29.1,49 28,49 L22,49 C20.9,49 20,48.1 20,47 L20,43 L30,43 L30,47 L30,47 Z M20,27 L30,27 L30,23 L20,23 L20,27 Z M7,21 L2.5,15 L7,9 L38,9 L38,21 L7,21 L7,21 Z M20,5 C20,3.89 20.9,3 22,3 L28,3 C29.1,3 30,3.89 30,5 L30,7 L20,7 L20,5 L20,5 Z M44,27 L32,27 L32,23 L40,23 L40,7 L32,7 L32,4.12 C32,2.39 30.57,0.99 28.8,0.99 L21.2,0.99 C19.43,0.99 18,2.39 18,4.12 L18,7 L6,7 L0,15 L6,23 L18,23 L18,27 L10,27 L10,43 L18,43 L18,47.87 C18,49.6 19.43,51 21.2,51 L28.8,51 C30.57,51 32,49.6 32,47.87 L32,43 L44,43 L50,35 L44,27 L44,27 Z" id="Fill-78" fill="#ffffff"></path>
    </g>
</svg>
