<?xml version="1.0" encoding="UTF-8" standalone="no"?>
<svg width="50px" height="40px" viewBox="0 0 50 40" version="1.1" xmlns="http://www.w3.org/2000/svg" xmlns:xlink="http://www.w3.org/1999/xlink">
    <!-- Generator: Sketch 3.7.1 (28215) - http://www.bohemiancoding.com/sketch -->
    <title>Fill 268</title>
    <desc>Created with Sketch.</desc>
    <defs></defs>
    <g id="Page-1" stroke="none" stroke-width="1" fill="none" fill-rule="evenodd">
        <g id="50px" transform="translate(-2027.000000, -4239.000000)" fill="#373A39">
            <path d="M2054.99,4270.71 L2055,4261 L2053,4261 C2036.44,4261 2030.87,4268.79 2029,4273.7 C2029.06,4269.69 2029.95,4263.24 2034.38,4258.3 C2038.63,4253.58 2044.56,4251.25 2053.06,4251 L2055,4250.94 L2055,4249 L2054.99,4241.34 L2074.63,4256.31 L2054.99,4270.71 L2054.99,4270.71 Z M2076.42,4255.16 L2055.67,4239.34 C2055.37,4239.13 2055,4239.01 2054.63,4239.01 C2054.39,4239.01 2054.15,4239.06 2053.93,4239.16 C2053.35,4239.4 2052.99,4239.92 2052.99,4240.48 L2053,4249 C2043.92,4249.27 2037.45,4251.89 2032.89,4256.97 C2025.47,4265.22 2027.13,4277.22 2027.21,4277.72 C2027.32,4278.45 2027.88,4278.98 2028.66,4278.98 L2028.71,4278.98 C2029.5,4278.96 2030,4278.38 2030.07,4277.63 C2030.12,4277.07 2031.15,4263 2053,4263 L2052.99,4271.56 C2052.99,4272.12 2053.35,4272.63 2053.93,4272.88 C2054.15,4272.97 2054.39,4273.02 2054.63,4273.02 C2055,4273.02 2055.38,4272.9 2055.67,4272.68 L2076.43,4257.46 C2076.79,4257.18 2077,4256.76 2077,4256.31 C2077,4255.87 2076.79,4255.44 2076.42,4255.16 L2076.42,4255.16 Z" id="Fill-268"></path>
        </g>
    </g>
</svg>